<svg xmlns="http://www.w3.org/2000/svg" version="1.1" xmlns:xlink="http://www.w3.org/1999/xlink" width="512" height="512" x="0" y="0" viewBox="0 0 64 64" style="enable-background:new 0 0 512 512" xml:space="preserve" class=""><g><g data-name="Layer 29"><path fill="#2d76a7" d="M4.31 34.54 2 43l6.8-3.4a17.069 17.069 0 1 0-4.49-5.06z" opacity="0" data-original="#2d76a7" class=""></path><path fill="#3c95ce" d="M19 9a16.992 16.992 0 0 1 12.978 27.969A16.99 16.99 0 0 1 8.031 13.022 16.925 16.925 0 0 1 19 9z" opacity="0" data-original="#3c95ce" class=""></path><path fill="#4ab8e4" d="M59.69 50.54 62 59l-6.8-3.4a17.069 17.069 0 1 1 4.49-5.06z" opacity="0" data-original="#4ab8e4" class=""></path><path fill="#6ac4e8" d="M45 25a16.992 16.992 0 0 0-12.978 27.969 16.99 16.99 0 0 0 23.947-23.947A16.925 16.925 0 0 0 45 25z" opacity="0" data-original="#6ac4e8" class=""></path><path fill="#f95757" d="M43 46h4v4h-4zM54 29a9 9 0 0 0-9.6-8.981 9.205 9.205 0 0 0-8.4 9.289V32h4v-2.785a5.145 5.145 0 0 1 4.509-5.192A5 5 0 0 1 50 29a5.168 5.168 0 0 1-2.6 4.488 8.725 8.725 0 0 0-4.4 7.574V43h4v-1.938a5.277 5.277 0 0 1 2.659-4.581A8.617 8.617 0 0 0 54 29z" opacity="1" data-original="#f9d157" class=""></path><path fill="#f95757" d="M22 5h-6l1 22h4zM17 30h4v4h-4z" opacity="1" data-original="#e7b532" class=""></path><path d="M54.769 26.889a10.067 10.067 0 0 0-1.324-3.216 23.404 23.404 0 0 0-.833-1.889l-.471.234c-.1-.105-.2-.216-.3-.316a10.2 10.2 0 0 0-1.358-1.058l1.119-.689a22.93 22.93 0 0 0-1.177-1.728l-1.6 1.2c.113.15.21.315.32.47A9.852 9.852 0 0 0 36.8 23.425 17.912 17.912 0 0 0 29.272 11.2c.415-.053.829-.114 1.244-.143l-.14-2c-.692.048-1.39.13-2.076.24l.232 1.43a17.97 17.97 0 0 0-5.687-2.3L23 5.045A1 1 0 0 0 22 4h-6a1 1 0 0 0-1 1.046l.154 3.384A17.96 17.96 0 0 0 3.237 34.663l-2.2 8.074a1 1 0 0 0 1.41 1.163l6.276-3.138a18.166 18.166 0 0 0 2.734 1.567c.259.512.525 1.024.819 1.513l1.189-.715a17.91 17.91 0 0 0 13.541-1.009 17.905 17.905 0 0 0 4.328 11.571L31.3 54.99q.351.011.7.01c.191 0 .381-.007.571-.012a17.912 17.912 0 0 0 22.706 1.769l6.276 3.143A1.008 1.008 0 0 0 62 60a1 1 0 0 0 .965-1.263l-2.2-8.074a17.956 17.956 0 0 0-5.994-23.774zm-10.3-5.871A8 8 0 0 1 53 29a7.631 7.631 0 0 1-3.837 6.612A6.291 6.291 0 0 0 46 41.062V42h-2v-.938a7.742 7.742 0 0 1 3.892-6.706A6.18 6.18 0 0 0 51 29a6 6 0 0 0-6.586-5.972A6.163 6.163 0 0 0 39 29.215V31h-2v-1.691a8.178 8.178 0 0 1 7.466-8.291zM20.953 6l-.909 20h-2.088l-.91-20zM9.418 38.791a1 1 0 0 0-1.047-.091l-4.818 2.405 1.722-6.314a1 1 0 0 0-.1-.766 15.966 15.966 0 0 1 10.071-23.572L16 27.046A1 1 0 0 0 17 28h4a1 1 0 0 0 1-.955l.754-16.592A15.929 15.929 0 0 1 35 26c0 .359-.027.717-.051 1.074a17.839 17.839 0 0 0-7.81 12.693 15.928 15.928 0 0 1-17.721-.976zm49.307 12 1.722 6.314-4.818-2.405a1 1 0 0 0-1.047.095A15.854 15.854 0 0 1 45 58a16 16 0 0 1-10-28.494V32a1 1 0 0 0 1 1h4a1 1 0 0 0 1-1v-2.785a4.149 4.149 0 0 1 3.6-4.2 3.966 3.966 0 0 1 3.086 1.02A4.013 4.013 0 0 1 49 29a4.177 4.177 0 0 1-2.1 3.62 9.746 9.746 0 0 0-4.9 8.442V43a1 1 0 0 0 1 1h4a1 1 0 0 0 1-1v-1.938a4.285 4.285 0 0 1 2.155-3.713 9.628 9.628 0 0 0 4.813-7.866 15.963 15.963 0 0 1 3.857 20.542 1 1 0 0 0-.1.766z" fill="#000000" opacity="1" data-original="#000000" class=""></path><path d="M47 45h-4a1 1 0 0 0-1 1v4a1 1 0 0 0 1 1h4a1 1 0 0 0 1-1v-4a1 1 0 0 0-1-1zm-1 4h-2v-2h2zM21 29h-4a1 1 0 0 0-1 1v4a1 1 0 0 0 1 1h4a1 1 0 0 0 1-1v-4a1 1 0 0 0-1-1zm-1 4h-2v-2h2zM40.609 10.667l-.745 1.855c.579.233 1.162.5 1.732.793l.915-1.779a22.748 22.748 0 0 0-1.902-.869zM36.613 9.464l-.4 1.959c.622.127 1.244.284 1.849.466l.578-1.914a21.155 21.155 0 0 0-2.027-.511zM47.628 15.126l-1.359 1.467c.466.431.917.888 1.34 1.359l1.486-1.34a24.466 24.466 0 0 0-1.467-1.486zM46.034 13.776a23.832 23.832 0 0 0-1.711-1.2l-1.073 1.689c.536.34 1.062.71 1.562 1.095zM32.464 9.005l-.038 2c.63.012 1.27.053 1.9.123l.218-1.988a23.071 23.071 0 0 0-2.08-.135zM19.474 51.292c.58.378 1.186.733 1.8 1.059l.935-1.768c-.562-.3-1.115-.623-1.645-.967zM27.151 54.487c.672.145 1.365.261 2.059.346l.244-1.984a21.454 21.454 0 0 1-1.884-.317zM16.2 48.709a23.45 23.45 0 0 0 1.582 1.366l1.231-1.575c-.5-.39-.981-.809-1.443-1.247zM15.047 44.4l-1.613 1.182a23.07 23.07 0 0 0 1.309 1.628l1.5-1.322a23.81 23.81 0 0 1-1.196-1.488zM23.165 53.241c.648.271 1.31.511 1.965.714l.593-1.91c-.6-.186-1.2-.4-1.789-.649z" fill="#000000" opacity="1" data-original="#000000" class=""></path></g></g></svg>