<svg xmlns="http://www.w3.org/2000/svg" version="1.1" xmlns:xlink="http://www.w3.org/1999/xlink" width="512" height="512" x="0" y="0" viewBox="0 0 64 64" style="enable-background:new 0 0 512 512" xml:space="preserve" class=""><g><path d="M55.456 23.99 45.075 5.998C44.349 4.748 43.053 4 41.609 4s-2.739.747-3.466 2l-10.38 17.99a3.953 3.953 0 0 0-.004 3.994 3.964 3.964 0 0 0 3.47 2.006H52a3.955 3.955 0 0 0 3.461-2.003 3.955 3.955 0 0 0-.004-3.997zm-13.845 1a1 1 0 1 1 0-2 1 1 0 0 1 0 2zm1-5a1 1 0 1 1-2 0v-4a1 1 0 1 1 2 0zM19.93 55c-.22 0-.44-.02-.65-.06C20.12 57.86 22.81 60 26 60s5.88-2.14 6.72-5.06c-.21.04-.43.06-.65.06H19.93zM17.714 48.142V51a2 2 0 0 0 2 2h12.572a2 2 0 0 0 2-2v-2.858c0-.048.006-.094.007-.142H17.707c0 .048.007.094.007.142z" fill="#f95757" opacity="1" data-original="#000000"></path><path d="M26.026 28.982a5.93 5.93 0 0 1 .006-5.994l7.191-12.463A17.88 17.88 0 0 0 26 9C16.075 9 8 17.075 8 27c0 5.28 2.314 10.272 6.35 13.698 1.602 1.362 2.692 3.227 3.138 5.302h17.024c.446-2.075 1.536-3.94 3.139-5.3a17.955 17.955 0 0 0 5.616-8.71H31.23a5.943 5.943 0 0 1-5.203-3.008z" fill="#f95757" opacity="1" data-original="#000000"></path></g></svg>