<svg xmlns="http://www.w3.org/2000/svg" version="1.1" xmlns:xlink="http://www.w3.org/1999/xlink" width="512"
    height="512" x="0" y="0" viewBox="0 0 64 64" style="enable-background:new 0 0 512 512" xml:space="preserve"
    class="">
    <g>
        <path
            d="M3 59.511h35.302a1 1 0 0 0 1-1V47.569c0-4.318-3.513-7.831-7.83-7.831h-4.675c2.644-1.913 4.374-5.015 4.374-8.52 0-5.8-4.719-10.519-10.52-10.519s-10.52 4.719-10.52 10.519c0 3.505 1.73 6.607 4.374 8.52H9.831C5.513 39.738 2 43.251 2 47.569v10.942a1 1 0 0 0 1 1zm20.035-7.3-2.385 2.567-2.375-2.556.934-10.483h2.889zM12.132 31.219c0-4.697 3.822-8.519 8.52-8.519s8.52 3.822 8.52 8.519-3.822 8.52-8.52 8.52-8.52-3.822-8.52-8.52zm-8.131 16.35a5.838 5.838 0 0 1 5.831-5.831h7.37l-.955 10.756c-.002.022-.006.043-.006.066l-.002.018c0 .039.017.073.022.111.01.084.017.167.048.247.033.085.087.157.141.23.021.028.029.062.054.088l.012.013.002.002 3.4 3.659a.998.998 0 0 0 1.464 0l3.414-3.674a.99.99 0 0 0 .254-.771h.013l-.958-10.744h7.366a5.837 5.837 0 0 1 5.83 5.831v9.942H4V47.57zM46.518"
            fill="#000000" opacity="1" data-original="#000000" class=""></path>
        <path
            d="4.489c-8.537 0-15.482 6.945-15.482 15.482s6.945 15.482 15.482 15.482S62 28.508 62 19.971 55.055 4.489 46.518 4.489zm0 28.965c-7.434 0-13.482-6.048-13.482-13.482S39.084 6.49 46.518 6.49 60 12.538 60 19.972s-6.048 13.482-13.482 13.482z"
            fill="#000000" opacity="1">
        </path>
        <circle r="15" cx="47" cy="20" fill="transparent" stroke="#F95757" stroke-width="2" />
        <path
            d="M53.235 11.854c.022-.022.031-.052.05-.076.021-.024.049-.038.067-.065.021-.031.025-.068.043-.1a.917.917 0 0 0 .114-.367c.006-.064.007-.125.002-.188a1.012 1.012 0 0 0-.104-.36.927.927 0 0 0-.112-.168c-.023-.028-.033-.062-.059-.088-.022-.022-.052-.031-.076-.05-.024-.021-.038-.049-.065-.067-4.627-3.175-10.87-2.594-14.845 1.381s-4.556 10.218-1.381 14.844c.028.04.063.072.095.107.01.01.013.024.023.034.006.006.013.007.019.012a.973.973 0 0 0 .287.191c.022.01.044.017.067.025.108.038.219.065.333.065h.002a.995.995 0 0 0 .338-.066c.034-.012.063-.03.095-.046.044-.021.09-.035.131-.063.027-.018.041-.047.065-.067s.053-.028.076-.05l14.835-14.835zm-13.572 1.264a9.665 9.665 0 0 1 11.245-1.765L37.899 24.362a9.664 9.664 0 0 1 1.765-11.244zM55.965 13.199a.902.902 0 0 0-.344-.18.999.999 0 0 0-.555.001.945.945 0 0 0-.186.079c-.032.017-.068.021-.099.042-.027.018-.041.047-.065.067s-.053.028-.076.05L39.805 28.093c-.022.022-.031.052-.05.076-.021.024-.049.038-.067.065-.021.031-.025.068-.043.1a.917.917 0 0 0-.114.367 1.074 1.074 0 0 0-.002.188 1.012 1.012 0 0 0 .104.36.927.927 0 0 0 .112.168c.023.028.033.062.059.088.022.022.052.031.076.05.024.021.038.049.065.067a11.571 11.571 0 0 0 6.567 2.035c3.011 0 6.006-1.165 8.268-3.426 3.976-3.976 4.561-10.215 1.392-14.835-.018-.027-.047-.041-.067-.065s-.028-.054-.051-.076c-.026-.026-.061-.036-.089-.059zM53.366 26.82a9.66 9.66 0 0 1-11.234 1.774l13.009-13.009a9.66 9.66 0 0 1-1.775 11.235z"
            fill="#F95757" opacity="1" data-original="#000000" class=""></path>
    </g>
</svg>