<svg xmlns="http://www.w3.org/2000/svg" version="1.1" xmlns:xlink="http://www.w3.org/1999/xlink" width="512" height="512" x="0" y="0" viewBox="0 0 64 64" style="enable-background:new 0 0 512 512" xml:space="preserve" class=""><g><path fill="#65788f" d="M54.29 56a5.3 5.3 0 0 0-.06.77v1.08a3.09 3.09 0 0 1-.95 2.23A3.25 3.25 0 0 1 51 61a3.19 3.19 0 0 1-3.23-3.15v-.92a6.26 6.26 0 0 0-.08-.93z" opacity="0" data-original="#65788f" class=""></path><path fill="#65788f" d="M58 46.82a6.73 6.73 0 0 1-1.59 4.34A10.59 10.59 0 0 0 54.29 56h-6.6a10.33 10.33 0 0 0-2.06-4.8A6.67 6.67 0 0 1 44 46.1a7 7 0 0 1 14 .72z" opacity="0" data-original="#ffe66d" class=""></path><path fill="#61ce70" d="m52 30 8 .01L56 36z" opacity="1" data-original="#919191" class=""></path><path fill="#65788f" d="M40.51 13.41a8.5 8.5 0 0 0-.08-1.14 1 1 0 0 1 .49-1l.58-.27a1 1 0 0 0 .37-1.36l-1.61-2.82a1 1 0 0 0-1.36-.37l-.59.34a1 1 0 0 1-1.14-.1 8.67 8.67 0 0 0-1.87-1.08 1 1 0 0 1-.65-.94V4a1 1 0 0 0-1-1h-3.21a1 1 0 0 0-1 1v.67a1 1 0 0 1-.65.94 8.67 8.67 0 0 0-1.87 1.08 1 1 0 0 1-1.14.1l-.58-.34a1 1 0 0 0-1.37.37l-1.6 2.78a1 1 0 0 0 .36 1.4l.58.34a1 1 0 0 1 .49 1 8.51 8.51 0 0 0-.07 1.14 8.77 8.77 0 0 0 .07 1.15 1 1 0 0 1-.49 1l-.58.34a1 1 0 0 0-.36 1.36l1.6 2.67a1 1 0 0 0 1.37.36l.58-.33a1 1 0 0 1 1.14.09 8.32 8.32 0 0 0 1.87 1.09 1 1 0 0 1 .65.94v.67a1 1 0 0 0 1 1h3.21a1 1 0 0 0 1-1v-.67a1 1 0 0 1 .65-.94 8.32 8.32 0 0 0 1.87-1.09 1 1 0 0 1 1.14-.12l.59.33a1 1 0 0 0 1.36-.33l1.61-2.78a1 1 0 0 0-.37-1.36l-.58-.34a1 1 0 0 1-.49-1 8.77 8.77 0 0 0 .08-1.11z" opacity="0" data-original="#65788f" class=""></path><circle cx="32" cy="13.37" r="4" fill="#e6eef3" opacity="1" data-original="#e6eef3" class=""></circle><path d="M33.65 24.83h-3.21a2 2 0 0 1-2-2v-.67a9.94 9.94 0 0 1-2.13-1.23l-.61.31a2 2 0 0 1-1.52.2 2 2 0 0 1-1.18-.93l-1.6-2.78a2 2 0 0 1-.2-1.52 2 2 0 0 1 .89-1.21l.58-.33a8.59 8.59 0 0 1-.09-1.26 11.17 11.17 0 0 1 .09-1.28l-.58-.3a2 2 0 0 1-.93-1.22 2 2 0 0 1 .2-1.52L23 6.32a2 2 0 0 1 2.74-.73l.58.33a10.38 10.38 0 0 1 2.08-1.24V4a2 2 0 0 1 2-2h3.21a2 2 0 0 1 2 2v.67a9.54 9.54 0 0 1 2.17 1.23l.62-.31a2 2 0 0 1 2.73.73l1.6 2.78a2 2 0 0 1-.73 2.73l-.58.33a8.55 8.55 0 0 1 .09 1.25 9.07 9.07 0 0 1-.09 1.28L42 15a2 2 0 0 1 .73 2.73l-1.6 2.78a2 2 0 0 1-2.73.73l-.59-.34a9.54 9.54 0 0 1-2.12 1.24v.69a2 2 0 0 1-2.04 2zm-7.38-5.92a2.07 2.07 0 0 1 1.26.43 7.56 7.56 0 0 0 1.65 1 2 2 0 0 1 1.26 1.86v.67h3.21v-.67a2 2 0 0 1 1.26-1.86 7.56 7.56 0 0 0 1.65-1 2 2 0 0 1 2.25-.17l.59.34 1.6-2.78-.58-.33a2 2 0 0 1-1-2 8.42 8.42 0 0 0 .07-1 8.4 8.4 0 0 0-.07-1 2 2 0 0 1 1-2l.58-.3-1.6-2.78-.59.34a2 2 0 0 1-2.25-.17 7.18 7.18 0 0 0-1.65-1 2 2 0 0 1-1.26-1.86V4h-3.21v.67a2 2 0 0 1-1.26 1.86 7.18 7.18 0 0 0-1.65 1 2 2 0 0 1-2.25.17l-.58-.34-1.61 2.74.58.33a2 2 0 0 1 1 2 8.4 8.4 0 0 0-.07 1 8.42 8.42 0 0 0 .07 1 2 2 0 0 1-1 2l-.58.33 1.61 2.78.58-.34a2 2 0 0 1 .99-.29z" fill="#000000" opacity="1" data-original="#000000" class=""></path><path d="M32 18.37a5 5 0 1 1 5-5 5 5 0 0 1-5 5zm0-8a3 3 0 1 0 3 3 3 3 0 0 0-3-3zM50 51h2v5h-2z" fill="#000000" opacity="1" data-original="#000000" class=""></path><path d="M51 52a1 1 0 0 1-.71-.29l-2-2 1.42-1.42 1.29 1.3 1.29-1.3 1.42 1.42-2 2A1 1 0 0 1 51 52z" fill="#000000" opacity="1" data-original="#000000" class=""></path><path fill="#65788f" d="M7.57 61 3 56.5V43h16v18z" opacity="0" data-original="#97d2fb" class=""></path><path fill="#e6eef3" d="m7.57 61 1.14-5.71L3 56.43" opacity="1" data-original="#e6eef3" class=""></path><path d="M19 62H7.57a1 1 0 0 1-.7-.29l-4.57-4.5a1 1 0 0 1-.3-.71V43a1 1 0 0 1 1-1h16a1 1 0 0 1 1 1v18a1 1 0 0 1-1 1zM8 60h10V44H4v12.08z" fill="#000000" opacity="1" data-original="#000000" class=""></path><path d="m8.55 61.2-2-.4.85-4.24-4.24.85-.4-2 5.72-1.14a1 1 0 0 1 1.17 1.17zM6 46h10v2H6zM6 51h10v2H6zM12 56h4v2h-4zM8.08 39.29A25.18 25.18 0 0 1 7 32a24.69 24.69 0 0 1 5.22-15.27L13.8 18A23 23 0 0 0 10 38.71zM32 57c-.79 0-1.59 0-2.45-.11l.18-2a23.09 23.09 0 0 0 11.85-2l.84 1.82A24.75 24.75 0 0 1 32 57zM54.91 30.08a22.93 22.93 0 0 0-9.49-16.76l1.16-1.62a24.93 24.93 0 0 1 10.33 18.22z" fill="#000000" opacity="1" data-original="#000000" class=""></path><path fill="#61ce70" d="m30.67 52.24-2.18 7.7-4.68-5.49zM16.25 19.88l-6.3-4.93 6.84-2.26z" opacity="1" data-original="#919191" class=""></path><path d="M56 37a1 1 0 0 1-.84-.45l-4-6a1 1 0 0 1-.05-1A1 1 0 0 1 52 29h8a1 1 0 0 1 .88.53 1 1 0 0 1-.05 1l-4 6A1 1 0 0 1 56 37zm-2.13-6L56 34.2l2.13-3.2zM28.49 60.94a1 1 0 0 1-.76-.35l-4.68-5.49a1 1 0 0 1-.21-.92 1 1 0 0 1 .66-.68l6.86-2.21a1 1 0 0 1 1 .23 1 1 0 0 1 .27 1l-2.18 7.7a1 1 0 0 1-.75.7.76.76 0 0 1-.21.02zm-2.95-6L28 57.87l1.17-4.1zM16.25 20.88a1 1 0 0 1-.62-.22l-6.3-4.93a1 1 0 0 1-.37-1 1 1 0 0 1 .68-.73l6.84-2.26a1 1 0 0 1 .93.16 1 1 0 0 1 .38.86L17.25 20a1 1 0 0 1-.59.84 1 1 0 0 1-.41.04zM12 15.31l3.35 2.63.29-3.83zM60 45h2v2h-2zM57.576 41.004l1.414-1.414 1.414 1.414-1.414 1.414zM40 45h2v2h-2zM42.574 40.002l1.414-1.414 1.414 1.414-1.414 1.414zM50 36h2v2h-2zM51 62a4.2 4.2 0 0 1-4.23-4.15v-.92a9.26 9.26 0 0 0-1.89-5.08A7.66 7.66 0 0 1 43 46a7.93 7.93 0 0 1 7.05-7 8.13 8.13 0 0 1 6.32 2 7.7 7.7 0 0 1 .76 10.74 9.19 9.19 0 0 0-1.94 5v1.08A4.2 4.2 0 0 1 51 62zm0-21a5.17 5.17 0 0 0-.68 0A5.92 5.92 0 0 0 45 46.21a5.69 5.69 0 0 0 1.36 4.34 11.2 11.2 0 0 1 2.38 6.38v.92a2.23 2.23 0 0 0 4.46 0v-1.08a11.19 11.19 0 0 1 2.41-6.26A5.62 5.62 0 0 0 57 46.83a5.75 5.75 0 0 0-1.93-4.28A6.1 6.1 0 0 0 51 41z" fill="#000000" opacity="1" data-original="#000000" class=""></path><path d="M48 55h6v2h-6z" fill="#000000" opacity="1" data-original="#000000" class=""></path></g></svg>