<svg xmlns="http://www.w3.org/2000/svg" version="1.1" xmlns:xlink="http://www.w3.org/1999/xlink" width="512" height="512" x="0" y="0" viewBox="0 0 512 512" style="enable-background:new 0 0 512 512" xml:space="preserve" class=""><g><path d="M226.88 482.88c0 16.06 13.06 29.12 29.12 29.12s29.12-13.06 29.12-29.12V471h-58.24zM200.92 394.8h110.16V441H200.92zM256 111c-73.3 0-132.94 59.64-132.94 132.94 0 48.98 26.81 93.85 69.98 117.11l6.95 3.75h112.02l6.95-3.75c43.16-23.26 69.98-68.13 69.98-117.11C388.94 170.64 329.3 111 256 111zm-20.46 185.3-45.1-45.11 21.21-21.21 23.89 23.89 64.81-64.81 21.21 21.22zM241 0h30v65h-30zM375.124 108.182l45.955-45.955 21.21 21.21-45.955 45.955zM439.535 233.535h65v30h-65zM375.09 388.924l21.21-21.21 45.955 45.955-21.21 21.21zM69.604 413.637l45.955-45.955 21.21 21.21-45.955 45.955zM7.465 233.535h65v30h-65zM69.636 83.404l21.21-21.21 45.955 45.955-21.21 21.21z" fill="#87c44b" opacity="1" data-original="#000000" class=""></path></g></svg>