<svg xmlns="http://www.w3.org/2000/svg" version="1.1" xmlns:xlink="http://www.w3.org/1999/xlink" width="512" height="512" x="0" y="0" viewBox="0 0 512 512" style="enable-background:new 0 0 512 512" xml:space="preserve" class=""><g><path fill="#000000" d="M163.42 392.077h-11.991v-42.888h11.991zm111.26 0h-11.99v-42.888h11.99zM234.57 375.126h-43.03c-8.362 0-15.194-6.775-15.194-15.137v-10.8h11.991v10.8c0 1.701 1.474 3.146 3.203 3.146h43.03c1.758 0 3.175-1.417 3.175-3.146v-10.8h11.991v10.8c0 8.362-6.803 15.137-15.166 15.137z" opacity="1" data-original="#2f3a4c"></path><path fill="#000000" d="M329.616 355.17H26.677C14.176 355.17 4 345.022 4 332.55V106.855c0-12.501 10.176-22.677 22.677-22.677h372.784c12.472 0 22.621 10.177 22.621 22.677v105.846h-11.991V106.855c0-5.896-4.762-10.687-10.63-10.687H26.677c-5.896 0-10.687 4.791-10.687 10.687V332.55c0 5.868 4.791 10.63 10.687 10.63h302.939z" opacity="1" data-original="#2f3a4c"></path><path fill="#000000" d="M303.82 328.808H36.4c-3.316 0-6.009-2.665-6.009-5.981V116.578a6.013 6.013 0 0 1 6.009-6.01h353.339c3.316 0 5.981 2.693 5.981 6.01v96.123h-11.991v-90.142H42.381v194.258H303.82zM108.003 415.832h210.104v-8.901c0-4.876-3.968-8.873-8.873-8.873H116.875c-4.904 0-8.873 3.997-8.873 8.873v8.901zm216.114 11.99H102.022a6.013 6.013 0 0 1-6.009-6.01V406.93c0-11.48 9.354-20.863 20.863-20.863h192.359c11.509 0 20.863 9.383 20.863 20.863v14.882c0 3.317-2.665 6.01-5.981 6.01z" opacity="1" data-original="#2f3a4c"></path><g fill="#116fff"><path d="M362.781 377.536c.992 0 2.012.227 2.919.737a75.734 75.734 0 0 0 16.356 6.775c2.013.595 3.6 2.183 4.139 4.224l3.798 14.117c.227.822.822 1.304 1.672 1.304h22.507c.822 0 1.445-.482 1.644-1.275l3.798-14.145a6.072 6.072 0 0 1 4.167-4.224 76.09 76.09 0 0 0 16.328-6.775 6.094 6.094 0 0 1 5.953.057l12.643 7.313c.708.425 1.531.312 2.126-.283l15.874-15.902c.595-.567.708-1.389.283-2.098l-7.342-12.642c-1.049-1.814-1.049-4.082-.028-5.925 2.863-5.159 5.188-10.658 6.775-16.356a6.041 6.041 0 0 1 4.195-4.138l14.173-3.77c.765-.227 1.247-.851 1.247-1.701v-22.507c0-.822-.482-1.446-1.247-1.672l-14.173-3.799c-2.041-.539-3.6-2.126-4.195-4.138-1.587-5.698-3.912-11.197-6.775-16.356a6.04 6.04 0 0 1 .028-5.924l7.342-12.643c.425-.709.284-1.531-.283-2.126l-15.902-15.874c-.567-.595-1.389-.709-2.098-.283l-12.643 7.313a6.097 6.097 0 0 1-5.953.057c-5.159-2.891-10.658-5.159-16.328-6.803-2.041-.567-3.6-2.154-4.167-4.195l-3.77-14.116c-.227-.822-.851-1.304-1.672-1.304h-22.507c-.85 0-1.446.482-1.672 1.276l-3.798 14.145a5.944 5.944 0 0 1-4.139 4.195c-5.698 1.644-11.197 3.912-16.356 6.803a6.042 6.042 0 0 1-5.924-.057l-12.643-7.313c-.737-.425-1.531-.312-2.126.283l-15.902 15.931c-.567.567-.68 1.361-.255 2.041l7.313 12.671a6.043 6.043 0 0 1 .057 5.924 75.825 75.825 0 0 0-6.803 16.356 5.994 5.994 0 0 1-4.195 4.138l-14.117 3.799c-.822.227-1.304.85-1.304 1.672v22.507c0 .822.481 1.446 1.275 1.672l14.145 3.799a5.946 5.946 0 0 1 4.195 4.138 75.825 75.825 0 0 0 6.803 16.356 6.041 6.041 0 0 1-.057 5.925l-7.313 12.642c-.425.709-.312 1.531.283 2.126l15.874 15.874c.595.595 1.389.709 2.098.283l12.671-7.313c.907-.539 1.956-.794 3.005-.794zm51.392 39.146h-22.507c-6.321 0-11.65-4.11-13.266-10.205l-2.919-10.885a90.427 90.427 0 0 1-12.586-5.216l-9.751 5.641c-5.414 3.175-12.104 2.296-16.583-2.154L320.63 377.96c-4.45-4.535-5.329-11.197-2.154-16.639l5.641-9.723a85.335 85.335 0 0 1-5.216-12.586l-10.914-2.948c-6.066-1.587-10.176-6.917-10.176-13.238v-22.507c0-6.321 4.11-11.65 10.205-13.238l10.885-2.948a85.271 85.271 0 0 1 5.216-12.586l-5.641-9.751a13.686 13.686 0 0 1 2.154-16.554l15.902-15.902c4.507-4.507 11.168-5.386 16.611-2.211l9.751 5.641a90.549 90.549 0 0 1 12.586-5.216l2.919-10.913c1.616-6.066 6.945-10.148 13.266-10.148h22.507c6.293 0 11.622 4.082 13.238 10.176l2.948 10.885c4.309 1.417 8.504 3.175 12.586 5.216l9.723-5.641c5.443-3.146 12.132-2.296 16.611 2.154l15.902 15.902c4.479 4.535 5.357 11.197 2.154 16.639l-5.613 9.723a88.5 88.5 0 0 1 5.188 12.586l10.942 2.948c6.066 1.587 10.148 6.917 10.148 13.238v22.507c0 6.293-4.082 11.622-10.148 13.266l-10.942 2.92a88.267 88.267 0 0 1-5.188 12.586l5.641 9.751c3.118 5.442 2.296 12.104-2.183 16.583l-15.902 15.902c-4.479 4.479-11.168 5.358-16.611 2.183l-9.723-5.641c-4.082 2.041-8.277 3.799-12.586 5.216l-2.948 10.913c-1.616 6.066-6.945 10.177-13.238 10.177z" fill="#f95757" opacity="1" data-original="#116fff" class=""></path><path d="M402.919 262.761c-26.929 0-48.841 21.884-48.841 48.813s21.912 48.812 48.841 48.812 48.841-21.884 48.841-48.812-21.912-48.813-48.841-48.813zm0 109.616c-33.534 0-60.831-27.269-60.831-60.803s27.297-60.803 60.831-60.803 60.803 27.269 60.803 60.803-27.269 60.803-60.803 60.803z" fill="#f95757" opacity="1" data-original="#116fff" class=""></path><path d="M420.495 365.148h-11.991v-28.063c0-2.353 1.389-4.479 3.543-5.471 7.823-3.543 12.897-11.424 12.897-20.041 0-4.876-1.616-9.524-4.45-13.266v10.431c0 9.695-7.88 17.603-17.575 17.603s-17.603-7.908-17.603-17.603v-10.431a21.985 21.985 0 0 0-4.45 13.266c0 8.617 5.074 16.498 12.926 20.041a6.01 6.01 0 0 1 3.515 5.471v28.063h-11.991v-24.463c-10.091-6.094-16.441-17.15-16.441-29.112 0-13.323 7.852-25.484 19.956-30.983 1.871-.822 4.025-.68 5.726.425a5.968 5.968 0 0 1 2.75 5.046v22.677c0 3.09 2.523 5.613 5.612 5.613s5.584-2.523 5.584-5.613v-22.677a6.035 6.035 0 0 1 2.75-5.046 6.055 6.055 0 0 1 5.726-.425c12.132 5.499 19.956 17.66 19.956 30.983 0 11.962-6.321 23.017-16.441 29.112v24.463zM213.055 163.69c-3.345 0-6.123 1.616-7.852 4.535l-27.071 46.97-27.127 46.942c-1.673 2.92-1.673 6.123 0 9.014 1.672 2.92 4.479 4.507 7.852 4.507h108.425c3.374 0 6.151-1.587 7.795-4.479 1.729-2.92 1.701-6.123.028-9.042l-54.255-93.912c-1.672-2.92-4.45-4.535-7.795-4.535zm54.227 123.959H158.857c-7.71 0-14.372-3.798-18.227-10.488-3.855-6.662-3.855-14.315-.028-21.005l27.156-46.97 27.099-46.97c3.884-6.661 10.517-10.516 18.199-10.516 7.597 0 14.4 3.94 18.198 10.516l54.227 93.912c3.827 6.605 3.827 14.485-.028 21.062-3.799 6.633-10.46 10.46-18.17 10.46z" fill="#f95757" opacity="1" data-original="#116fff" class=""></path><path d="M213.055 242.21a6.014 6.014 0 0 1-6.01-6.01v-45.496c0-3.317 2.693-5.981 6.01-5.981a5.983 5.983 0 0 1 5.981 5.981V236.2c0 3.316-2.693 6.01-5.981 6.01zM213.055 264.462a6.014 6.014 0 0 1-6.01-6.01v-.454a6.014 6.014 0 0 1 6.01-6.01c3.288 0 5.981 2.693 5.981 6.01v.454c0 3.316-2.693 6.01-5.981 6.01z" fill="#f95757" opacity="1" data-original="#116fff" class=""></path></g></g></svg>