<?xml version="1.0" encoding="utf-8"?>
<!-- Generator: Adobe Illustrator 17.0.0, SVG Export Plug-In . SVG Version: 6.00 Build 0)  -->
<!DOCTYPE svg PUBLIC "-//W3C//DTD SVG 1.1 Tiny//EN" "http://www.w3.org/Graphics/SVG/1.1/DTD/svg11-tiny.dtd">
<svg version="1.1" baseProfile="tiny" id="Layer_1" xmlns="http://www.w3.org/2000/svg" xmlns:xlink="http://www.w3.org/1999/xlink"
	 x="0px" y="0px" width="326.815px" height="109.69px" viewBox="0 0 326.815 109.69" xml:space="preserve">
<g>
	<path fill="#008752" stroke="#FFFFFF" d="M54.6,18.922c6.241,5.559,12.568,11.542,14.449,19.494
		c1.283,5.045-3.847,7.952-5.813,11.543c0.855-6.328-3.505-11.543-7.524-16.074c-8.037-7.354-16.672-14.449-23.598-23.256v-0.94
		l5.044-8.808C42.374,7.294,48.274,13.451,54.6,18.922z"/>
	<path fill="#008752" stroke="#FFFFFF" d="M31.259,12.254c8.208,11.969,23,18.725,29.583,31.805
		c1.283,2.565,2.052,6.328,0.513,8.977l-4.959,6.841c0.085-14.021-14.45-21.032-23.342-30.181c-2.735-2.822-5.643-5.9-7.951-8.723
		v-0.939l5.643-8.037L31.259,12.254z"/>
	<path fill="#008752" stroke="#FFFFFF" d="M39.808,37.988c6.413,5.301,12.911,11.2,15.22,19.152
		c1.625,5.643-3.25,8.465-5.472,12.313c0.513-6.156-3.335-10.773-7.011-15.135c-8.721-8.635-17.356-14.193-25.137-24.367
		l0.085-0.684c2.052-2.395,4.104-4.702,6.156-7.182C28.608,27.9,33.823,33.03,39.808,37.988z"/>
	<path fill="#008752" stroke="#FFFFFF" d="M29.976,57.31c7.866,6.84,15.476,12.74,22.145,21.548l-0.256,0.855
		c-1.881,2.222-4.019,4.702-6.071,6.925c-9.405-12.996-24.282-19.066-30.694-33.176c-3.164-5.812,2.394-10.26,4.873-14.449
		C19.46,46.538,25.103,52.523,29.976,57.31z"/>
	<path fill="#008752" stroke="#FFFFFF" d="M28.352,71.847c5.472,4.702,12.056,10.347,16.074,16.501
		c-1.795,2.908-4.018,5.559-5.814,8.467l-0.427-0.174C29.805,83.816,13.646,77.062,7.917,62.698
		c-0.855-2.907-0.769-6.669,1.539-8.893l3.933-5.386C12.706,58.765,21.426,65.775,28.352,71.847z"/>
	<path fill="#008752" stroke="#FFFFFF" d="M6.635,58.339c-1.283,8.72,5.985,15.475,11.97,21.117
		c7.097,6.155,12.996,11.2,18.639,18.98l-0.085,0.771l-5.13,8.977l-0.428-0.085c-8.293-13.851-24.71-20.862-30.78-36.081
		c-0.343-1.967-0.599-4.359,0.256-6.242C3.044,63.211,4.754,60.731,6.635,58.339z"/>
</g>
<g>
	<path d="M89.022,75.609c3.331,0.202,6.223-0.959,8.673-3.079h0.147l-2.548,6.713H75.154v-0.151
		c2.499-0.908,2.205-4.644,2.205-6.914V53.15c0-2.322,0.294-6.007-2.205-6.965v-0.152h9.359v0.152
		c-2.499,0.958-2.156,4.693-2.156,6.965v22.005L89.022,75.609z"/>
	<path d="M107.788,75.004l6.223,0.605c3.234,0.303,6.615-0.757,9.065-2.978h0.147l-2.205,6.611h-20.433v-0.151
		c2.499-0.908,2.205-4.644,2.205-6.914V53.15c0-2.322,0.295-6.007-2.205-6.965v-0.152h15.68c0.833,0,1.666,0.102,2.303-0.252h0.147
		v5.905h-0.147c-1.519-1.817-3.528-2.018-5.782-2.018c-1.715,0-3.43,0.05-4.998,0.353v9.388h5.831c0.784,0,1.568,0,2.156-0.303
		h0.147v5.35h-0.147c-0.784-1.463-2.842-1.413-4.361-1.413h-3.626V75.004z"/>
	<path d="M131.798,74.095c-1.176,1.615-2.646,3.786,0.343,4.997v0.151h-9.506v-0.151l13.573-17.563l-7.105-10.599
		c-1.274-1.918-2.646-3.938-4.704-4.896h5.684c1.519,0,1.96,0.404,2.45,1.212l7.105,10.548l4.851-6.763
		c1.225-1.716,2.891-4.441-0.441-4.845v-0.152h8.967l-11.123,14.939l7.84,12.012c1.568,2.423,3.087,5.199,5.88,6.259h-5.635
		c-2.009,0-2.842-1.312-3.185-1.767l-8.183-12.668L131.798,74.095z"/>
	<path d="M158.355,53.15c0-2.322,0.343-6.007-2.156-6.965v-0.152h9.31v0.152c-2.45,0.958-2.156,4.693-2.156,6.965v19.027
		c0,2.271-0.294,5.955,2.156,6.914v0.151h-9.31v-0.151c2.45-0.908,2.156-4.644,2.156-6.914V53.15z"/>
	<path d="M174.868,72.682c0,2.827-0.049,4.846,2.548,6.41v0.151h-8.673v-0.151c2.597-1.564,2.597-3.583,2.597-6.41V52.544
		c0-2.826,0-4.845-2.548-6.358v-0.152h7.154v0.051c0.196,0.605,0.392,0.858,0.735,1.262l0.686,1.01l17.934,23.317V52.544
		c0-2.826,0.05-4.845-2.548-6.358v-0.152h8.624v0.152c-2.548,1.514-2.548,3.532-2.548,6.358v28.314
		c-3.479-1.212-4.998-2.877-7.154-5.754L174.868,53.15V72.682z"/>
	<path d="M229.404,51.889h-0.146c-2.01-2.322-5.733-3.028-8.723-3.028c-7.643,0-13.475,5.147-13.475,13.273
		s6.272,14.283,14.014,14.283c2.254,0,4.606-0.303,6.811-0.959V68.19c0-2.322-0.049-4.795-2.254-5.703v-0.151h7.496v0.151
		c-0.244,0.606-0.244,1.413-0.244,2.17v11.608c0,0.757-0.05,1.564,0.244,2.271c-3.92,0.758-7.741,1.515-11.711,1.515
		c-12.543,0-19.942-7.066-19.942-17.211c0-10.851,8.379-17.613,20.237-17.613c2.597,0,5.145,0.303,7.692,0.857V51.889z"/>
	<path d="M247.24,72.682c0,2.877-0.049,4.846,2.548,6.41v0.151h-9.702v-0.151c2.45-0.959,2.156-4.644,2.156-6.914v-22.51h-4.312
		c-2.107,0-4.312,0.555-5.831,2.018h-0.147l1.715-6.006h0.147c0.588,0.252,1.225,0.252,1.861,0.353h1.225h18.276
		c0.833,0,1.617-0.05,2.254-0.353h0.147l-1.568,6.006h-0.147c-0.637-1.767-2.597-2.018-4.214-2.018h-4.41V72.682z"/>
	<path d="M292.368,62.285c0,10.296-8.28,17.766-18.031,17.766c-9.702,0-17.885-7.167-17.885-17.514
		c0-9.589,8.085-17.614,18.375-17.361C285.116,45.125,292.368,53.2,292.368,62.285z M262.038,62.083
		c0,7.066,4.851,14.334,12.544,14.334c7.447,0,12.2-5.603,12.2-13.122c0-7.369-4.557-14.485-12.299-14.485
		C266.888,48.809,262.038,54.462,262.038,62.083z"/>
	<path d="M300.306,72.682c0,2.827-0.049,4.846,2.548,6.41v0.151h-8.673v-0.151c2.597-1.564,2.597-3.583,2.597-6.41V52.544
		c0-2.826,0-4.845-2.548-6.358v-0.152h7.154v0.051c0.196,0.605,0.392,0.858,0.735,1.262l0.686,1.01l17.934,23.317V52.544
		c0-2.826,0.05-4.845-2.548-6.358v-0.152h8.624v0.152c-2.548,1.514-2.548,3.532-2.548,6.358v28.314
		c-3.479-1.212-4.998-2.877-7.154-5.754L300.306,53.15V72.682z"/>
</g>
<g>
	<path d="M94.474,88.021c0.256-0.726,0.48-1.417,0.48-2.143v-0.034h5.536v0.104c-0.768,0.241-0.992,1.244-0.992,2.039l2.112,16.969
		c0.192,1.624,0.352,2.558,1.632,3.525v0.104h-6.176v-0.104c1.12-0.38,1.312-1.417,1.312-2.592l-1.824-16.658l-7.168,19.803
		c-1.6-1.313-2.048-2.246-2.816-4.182l-6.08-15.587l-1.824,14.861c-0.256,2.107-0.48,3.629,1.024,4.354v0.104h-5.216v-0.104
		c1.344-1.279,1.536-2.973,1.792-4.839l1.824-14.48c0.128-0.968,0.48-2.35-0.992-3.214v-0.104h5.6v0.034
		c0,0.553,0.256,1.071,0.448,1.556l6.016,15.24L94.474,88.021z"/>
	<path d="M109.258,105.682l4.064,0.415c2.112,0.207,4.32-0.519,5.92-2.039h0.096l-1.44,4.527h-13.344v-0.104
		c1.632-0.622,1.44-3.18,1.44-4.735V90.718c0-1.59,0.192-4.113-1.44-4.77v-0.104h10.24c0.544,0,1.088,0.068,1.504-0.173h0.096v4.043
		h-0.096c-0.992-1.244-2.304-1.382-3.776-1.382c-1.12,0-2.24,0.034-3.264,0.241v6.429h3.808c0.512,0,1.024,0,1.408-0.207h0.096
		v3.663h-0.096c-0.512-1.002-1.856-0.968-2.848-0.968h-2.368V105.682z"/>
	<path d="M121.769,90.579c0-1.59,0.224-4.112-1.408-4.631v-0.104h7.84c7.296,0,11.84,4.285,11.84,11.162
		c0,6.809-4.832,11.578-12,11.578h-7.68v-0.104c1.6-1.175,1.408-2.834,1.408-4.873V90.579z M125.033,105.854
		c0.768,0.173,1.536,0.242,2.336,0.242c4.768,0,9.024-2.695,9.024-8.675c0-6.048-3.136-9.089-8.48-9.089
		c-0.96,0-1.92,0.138-2.88,0.38V105.854z"/>
	<path d="M142.281,90.718c0-1.59,0.224-4.113-1.408-4.77v-0.104h6.08v0.104c-1.6,0.656-1.408,3.214-1.408,4.77v13.028
		c0,1.556-0.192,4.078,1.408,4.735v0.104h-6.08v-0.104c1.6-0.622,1.408-3.18,1.408-4.735V90.718z"/>
	<path d="M165.705,90.13c-1.76-1.21-3.808-1.97-5.92-1.97c-4.416,0-7.488,3.49-7.488,8.502c0,5.08,3.2,9.607,8.128,9.607
		c2.4,0,4.8-0.934,6.816-2.178h0.096l-1.632,4.01c-1.504,0.76-3.168,1.036-4.832,1.036c-7.552,0-12.224-4.562-12.224-11.958
		c0-7.153,4.672-11.889,11.231-11.889c1.952,0,3.936,0.381,5.824,0.864V90.13z"/>
	<path d="M174.281,100.049l-1.664,4.873c-0.672,1.936-0.896,2.938,0.64,3.56v0.104h-5.888v-0.104
		c1.855-1.002,2.399-2.938,3.104-4.907l5.344-14.412c0.448-1.244,1.057-2.695-0.479-3.214v-0.104h5.056l6.656,17.729
		c0.735,1.97,1.311,3.905,3.136,4.907v0.104h-6.56v-0.104c1.567-0.761,1.311-1.141,0.447-3.56l-1.727-4.873H174.281z M178.28,88.782
		l-3.168,8.709h6.305L178.28,88.782z"/>
	<path d="M200.04,106.097c2.176,0.138,4.064-0.656,5.664-2.108h0.096l-1.663,4.597h-13.152v-0.104c1.632-0.622,1.44-3.18,1.44-4.735
		V90.718c0-1.59,0.191-4.113-1.44-4.77v-0.104h6.112v0.104c-1.632,0.656-1.408,3.214-1.408,4.77v15.067L200.04,106.097z"/>
	<path d="M232.903,90.13c-1.76-1.21-3.808-1.97-5.92-1.97c-4.415,0-7.487,3.49-7.487,8.502c0,5.08,3.2,9.607,8.128,9.607
		c2.399,0,4.8-0.934,6.815-2.178h0.097l-1.633,4.01c-1.504,0.76-3.168,1.036-4.831,1.036c-7.553,0-12.225-4.562-12.225-11.958
		c0-7.153,4.672-11.889,11.232-11.889c1.952,0,3.936,0.381,5.823,0.864V90.13z"/>
	<path d="M240.456,105.682l4.064,0.415c2.112,0.207,4.32-0.519,5.92-2.039h0.096l-1.439,4.527h-13.344v-0.104
		c1.632-0.622,1.439-3.18,1.439-4.735V90.718c0-1.59,0.192-4.113-1.439-4.77v-0.104h10.239c0.544,0,1.088,0.068,1.504-0.173h0.097
		v4.043h-0.097c-0.991-1.244-2.304-1.382-3.775-1.382c-1.12,0-2.24,0.034-3.264,0.241v6.429h3.808c0.512,0,1.023,0,1.408-0.207
		h0.096v3.663h-0.096c-0.513-1.002-1.856-0.968-2.849-0.968h-2.367V105.682z"/>
	<path d="M256.103,104.092c0,1.936-0.032,3.318,1.664,4.39v0.104h-5.664v-0.104c1.696-1.071,1.696-2.454,1.696-4.39V90.303
		c0-1.936,0-3.318-1.664-4.354v-0.104h4.672v0.034c0.128,0.415,0.256,0.588,0.48,0.864l0.448,0.691l11.712,15.967V90.303
		c0-1.936,0.032-3.318-1.664-4.354v-0.104h5.632v0.104c-1.664,1.036-1.664,2.419-1.664,4.354v19.388
		c-2.272-0.829-3.264-1.97-4.672-3.939l-10.976-15.033V104.092z"/>
	<path d="M282.886,104.092c0,1.971-0.032,3.318,1.664,4.39v0.104h-6.336v-0.104c1.6-0.657,1.408-3.18,1.408-4.735V88.333h-2.816
		c-1.376,0-2.815,0.38-3.808,1.382h-0.096l1.119-4.112h0.097c0.384,0.173,0.8,0.173,1.216,0.242h0.8h11.936
		c0.544,0,1.057-0.035,1.473-0.242h0.096l-1.025,4.112h-0.096c-0.416-1.209-1.696-1.382-2.752-1.382h-2.88V104.092z"/>
	<path d="M294.854,105.682l4.064,0.415c2.111,0.207,4.319-0.519,5.92-2.039h0.096l-1.441,4.527H290.15v-0.104
		c1.632-0.622,1.44-3.18,1.44-4.735V90.718c0-1.59,0.191-4.113-1.44-4.77v-0.104h10.24c0.544,0,1.088,0.068,1.504-0.173h0.096v4.043
		h-0.096c-0.992-1.244-2.304-1.382-3.776-1.382c-1.119,0-2.239,0.034-3.264,0.241v6.429h3.808c0.513,0,1.024,0,1.408-0.207h0.096
		v3.663h-0.096c-0.512-1.002-1.855-0.968-2.848-0.968h-2.368V105.682z"/>
	<path d="M314.31,85.845c4.287,0,6.624,2.419,6.624,5.563c0,3.042-2.465,5.427-5.089,6.083l4.608,6.255
		c1.344,1.798,3.36,3.595,5.184,4.839h-2.943c-1.696,0-2.752-0.449-3.712-1.728l-3.904-5.219l-2.944-4.873
		c2.561-0.415,5.536-1.693,5.536-4.942c0-2.488-1.983-3.939-4.128-3.836c-0.735,0.034-1.439,0.138-2.176,0.276v15.482
		c0,1.59-0.192,4.113,1.44,4.735v0.104h-6.112v-0.104c1.632-0.622,1.408-3.18,1.408-4.735V90.718c0-1.59,0.224-4.113-1.408-4.77
		v-0.104H314.31z"/>
</g>
</svg>
